HIERARCHY
ROOT hip
{
	OFFSET	0.00  0.00  0.00 
	CHANNELS 6 Xposition Yposition Zposition Xrotation Zrotation Yrotation
	JOINT abdomen
	{
		OFFSET	0.000000 1.799998 0.000000
		CHANNELS 3 Xrotation Zrotation Yrotation
		JOINT chest
		{
			OFFSET	0.000000 4.464001 -0.360000
			CHANNELS 3 Xrotation Zrotation Yrotation
			JOINT neck
			{
				OFFSET	0.000000 5.400002 -0.144000
				CHANNELS 3 Xrotation Zrotation Yrotation
				JOINT head
				{
					OFFSET	0.000000 1.655998 0.000000
					CHANNELS 3 Xrotation Zrotation Yrotation
				}
			}
			JOINT lCollar
			{
				OFFSET	1.800000 3.528000 -0.432000
				CHANNELS 3 Yrotation Zrotation Xrotation
				JOINT lShldr
				{
					OFFSET	1.728000 0.000000 0.000000
					CHANNELS 3 Zrotation Yrotation Xrotation
					JOINT lForeArm
					{
						OFFSET	5.328000 0.000000 0.000000
						CHANNELS 3 Yrotation Zrotation Xrotation
						JOINT lHand
						{
							OFFSET	4.464000 0.000000 0.000000
							CHANNELS 3 Zrotation Yrotation Xrotation
						}
					}
				}
			}
			JOINT rCollar
			{
				OFFSET	-1.872000 3.528000 -0.432000
				CHANNELS 3 Yrotation Zrotation Xrotation
				JOINT rShldr
				{
					OFFSET	-1.656000 0.000000 0.000000
					CHANNELS 3 Zrotation Yrotation Xrotation
					JOINT rForeArm
					{
						OFFSET	-5.400000 0.000000 0.000000
						CHANNELS 3 Yrotation Zrotation Xrotation
						JOINT rHand
						{
							OFFSET	-4.392000 0.000000 0.000000
							CHANNELS 3 Zrotation Yrotation Xrotation
						}
					}
				}
			}
		}
	}
	JOINT lThigh
	{
		OFFSET	2.808000 -0.864002 0.720000
		CHANNELS 3 Xrotation Zrotation Yrotation
		JOINT lShin
		{
			OFFSET	-1.080000 -10.583999 0.000000
			CHANNELS 3 Xrotation Zrotation Yrotation
			JOINT lFoot
			{
				OFFSET	0.000000 -10.152000 -0.648000
				CHANNELS 3 Xrotation Yrotation Zrotation
				End Site
				{
					OFFSET 0.000000 -1.296000 2.448000
				}
			}
		}
	}
	JOINT rThigh
	{
		OFFSET	-2.808000 -0.864002 0.720000
		CHANNELS 3 Xrotation Zrotation Yrotation
		JOINT rShin
		{
			OFFSET	1.080000 -10.583999 0.000000
			CHANNELS 3 Xrotation Zrotation Yrotation
			JOINT rFoot
			{
				OFFSET	0.000000 -10.152000 -0.648000
				CHANNELS 3 Xrotation Yrotation Zrotation
				End Site
				{
					OFFSET 0.000000 -1.296000 2.448000
				}
			}
		}
	}
}
MOTION
Frames:     15
Frame Time: 0.033333
0.000000 23.151886 0.000000 0.000000 0.000000 0.000000 5.203725 -0.372443 10.533548 10.336815 -1.083823 13.337958 0.000000 0.000000 -13.596852 -13.147835 -6.291250 -14.751326 -10.000000 -0.096800 -0.039100 -77.055901 4.434520 1.465570 -2.367900 0.000000 6.137710 -6.302800 0.000000 0.000000 21.380314 2.335667 0.099573 56.075100 26.604099 -20.021400 63.976398 3.756524 -19.328573 0.000000 0.000000 6.983578 0.000000 0.000000 0.000000 0.009766 0.000000 0.000000 -0.097656 0.000000 0.000000 0.000000 -0.019531 0.000000 0.009766 0.019531 -0.009766 0.166016 0.009766 0.000000 
0.000000 23.151886 0.000000 0.000000 0.000000 0.000000 5.447592 -0.396671 10.521767 9.849310 -1.138392 13.341826 0.000000 0.000000 -13.593217 -13.666049 -6.460225 -15.086836 -10.000000 -0.096800 -0.039100 -77.055901 4.434520 1.465570 -2.367900 0.000000 6.137710 -6.302800 0.000000 0.000000 21.629171 2.688159 0.052710 56.850674 26.773668 -18.757175 55.701691 3.578505 -19.368069 0.000000 0.000000 6.929293 0.000000 0.000000 0.000000 0.009766 0.000000 0.000000 -0.097656 0.000000 0.000000 0.000000 -0.019531 0.000000 0.009766 0.019531 -0.009766 0.166016 0.009766 0.000000 
0.000000 23.151886 0.000000 0.000000 0.000000 0.000000 5.657651 -0.420038 10.510017 8.841945 -1.188553 13.345683 0.000000 0.000000 -13.589581 -14.218968 -6.599493 -15.381943 -10.000000 -0.096800 -0.039100 -77.055901 4.434520 1.465570 -2.367900 0.000000 6.137710 -6.302800 0.000000 0.000000 21.821850 3.000040 -0.019708 56.430286 26.885153 -17.603382 48.205898 3.392338 -19.407564 0.000000 0.000000 6.863708 0.000000 0.000000 0.000000 0.009766 0.000000 0.000000 -0.097656 0.000000 0.000000 0.000000 -0.019531 0.000000 0.009766 0.019531 -0.009766 0.166016 0.009766 0.000000 
0.000000 23.151886 0.000000 0.000000 0.000000 0.000000 5.836079 -0.442588 10.498304 7.634437 -1.234575 13.349525 0.000000 0.000000 -13.585946 -14.797550 -6.710385 -15.641223 -10.000000 -0.096800 -0.039100 -77.055901 4.434520 1.465570 -2.367900 0.000000 6.137710 -6.302800 0.000000 0.000000 21.966270 3.259212 -0.119939 55.319332 26.943563 -16.555532 45.923302 3.199429 -19.447060 0.000000 0.000000 6.787364 0.000000 0.000000 0.000000 0.009766 0.000000 0.000000 -0.097656 0.000000 0.000000 0.000000 -0.019531 0.000000 0.009766 0.019531 -0.009766 0.166016 0.009766 0.000000 
0.000000 23.151886 0.000000 0.000000 0.000000 0.000000 5.984992 -0.464364 10.486636 6.590470 -1.276720 13.353355 0.000000 0.000000 -13.582311 -15.392759 -6.794210 -15.869262 -10.000000 -0.096800 -0.039100 -77.055901 4.434520 1.465570 -2.367900 0.000000 6.137710 -6.302800 0.000000 0.000000 22.070349 3.465620 -0.246508 54.023201 26.953903 -15.609131 48.134933 3.001185 -19.486555 0.000000 0.000000 6.700789 0.000000 0.000000 0.000000 0.009766 0.000000 0.000000 -0.097656 0.000000 0.000000 0.000000 -0.019531 0.000000 0.009766 0.019531 -0.009766 0.166016 0.009766 0.000000 
0.000000 23.151886 0.000000 0.000000 0.000000 0.000000 6.106441 -0.485409 10.475019 7.172399 -1.315244 13.357174 0.000000 0.000000 -13.578675 -15.995556 -6.852251 -16.070639 -10.000000 -0.096800 -0.039100 -77.055901 4.434520 1.465570 -2.367900 0.000000 6.137710 -6.302800 0.000000 0.000000 22.142002 3.622217 -0.397004 52.958206 26.921179 -14.759686 52.833538 2.799013 -19.526051 0.000000 0.000000 6.604505 0.000000 0.000000 0.000000 0.009766 0.000000 0.000000 -0.097656 0.000000 0.000000 0.000000 -0.019531 0.000000 0.009766 0.019531 -0.009766 0.166016 0.009766 0.000000 
0.000000 23.151886 0.000000 0.000000 0.000000 0.000000 6.202422 -0.505762 10.463453 7.859917 -1.350391 13.360975 0.000000 0.000000 -13.575040 -16.596899 -6.885766 -16.249933 -10.000000 -0.096800 -0.039100 -77.055901 4.434520 1.465570 -2.367900 0.000000 6.137710 -6.302800 0.000000 0.000000 22.189146 3.731956 -0.569020 52.184322 26.850397 -14.002705 58.011852 2.594320 -19.565546 0.000000 0.000000 6.499021 0.000000 0.000000 0.000000 0.009766 0.000000 0.000000 -0.097656 0.000000 0.000000 0.000000 -0.019531 0.000000 0.009766 0.019531 -0.009766 0.166016 0.009766 0.000000 
0.000000 23.151886 0.000000 0.000000 0.000000 0.000000 6.274862 -0.525461 10.451943 8.435040 -1.382400 13.364756 0.000000 0.000000 -13.571404 -17.187748 -6.895990 -16.411726 -10.000000 -0.096800 -0.039100 -77.055901 4.434520 1.465570 -2.367900 0.000000 6.137710 -6.302800 0.000000 0.000000 22.219696 3.797791 -0.760144 51.672436 26.746559 -13.333693 61.662624 2.388513 -19.605042 0.000000 0.000000 6.384840 0.000000 0.000000 0.000000 0.009766 0.000000 0.000000 -0.097656 0.000000 0.000000 0.000000 -0.019531 0.000000 0.009766 0.019531 -0.009766 0.166016 0.009766 0.000000 
0.000000 23.151886 0.000000 0.000000 0.000000 0.000000 6.325629 -0.544543 10.440494 8.739472 -1.411500 13.368513 0.000000 0.000000 -13.567769 -17.759062 -6.884134 -16.560600 -10.000000 -0.096800 -0.039100 -77.055901 4.434520 1.465570 -2.367900 0.000000 6.137710 -6.302800 0.000000 0.000000 22.241571 3.822676 -0.967968 51.393433 26.614674 -12.748158 61.778599 2.182998 -19.644537 0.000000 0.000000 6.262453 0.000000 0.000000 0.000000 0.009766 0.000000 0.000000 -0.097656 0.000000 0.000000 0.000000 -0.019531 0.000000 0.009766 0.019531 -0.009766 0.166016 0.009766 0.000000 
0.000000 23.151886 0.000000 0.000000 0.000000 0.000000 6.356527 -0.563042 10.429111 8.792797 -1.437912 13.372248 0.000000 0.000000 -13.564134 -18.301802 -6.851381 -16.701134 -10.000000 -0.096800 -0.039100 -77.055901 4.434520 1.465570 -2.367900 0.000000 6.137710 -6.302800 0.000000 0.000000 22.262682 3.809564 -1.190082 51.318218 26.459745 -12.241607 57.180775 1.979182 -19.684032 0.000000 0.000000 6.132345 0.000000 0.000000 0.000000 0.009766 0.000000 0.000000 -0.097656 0.000000 0.000000 0.000000 -0.019531 0.000000 0.009766 0.019531 -0.009766 0.166016 0.009766 0.000000 
0.000000 23.151886 0.000000 0.000000 0.000000 0.000000 6.369302 -0.580992 10.417800 8.654387 -1.461849 13.375957 0.000000 0.000000 -13.560498 -18.806927 -6.798894 -16.837906 -10.000000 -0.096800 -0.039100 -77.055901 4.434520 1.465570 -2.367900 0.000000 6.137710 -6.302800 0.000000 0.000000 22.290947 3.761408 -1.424077 51.417679 26.286785 -11.809550 50.003212 1.778473 -19.723528 0.000000 0.000000 5.994991 0.000000 0.000000 0.000000 0.009766 0.000000 0.000000 -0.097656 0.000000 0.000000 0.000000 -0.019531 0.000000 0.009766 0.019531 -0.009766 0.166016 0.009766 0.000000 
0.000000 23.151886 0.000000 0.000000 0.000000 0.000000 6.365632 -0.598422 10.406569 8.377496 -1.483516 13.379642 0.000000 0.000000 -13.556864 -19.265400 -6.727810 -16.975500 -10.000000 -0.096800 -0.039100 -77.055901 4.434520 1.465570 -2.367900 0.000000 6.137710 -6.302800 0.000000 0.000000 22.334282 3.681163 -1.667543 51.662708 26.100800 -11.447493 43.208199 1.582275 -19.763023 0.000000 0.000000 5.850855 0.000000 0.000000 0.000000 0.009766 0.000000 0.000000 -0.097656 0.000000 0.000000 0.000000 -0.019531 0.000000 0.009766 0.019531 -0.009766 0.166016 0.009766 0.000000 
0.000000 23.151886 0.000000 0.000000 0.000000 0.000000 6.347138 -0.615363 10.395430 8.009312 -1.503107 13.383304 0.000000 0.000000 -13.553228 -19.669413 -6.639242 -17.116785 -10.000000 -0.096800 -0.039100 -77.055901 4.434520 1.465570 -2.367900 0.000000 6.137710 -6.302800 0.000000 0.000000 22.400600 3.571782 -1.918070 52.024200 25.906794 -11.150945 39.090862 1.391999 -19.802519 0.000000 0.000000 5.700397 0.000000 0.000000 0.000000 0.009766 0.000000 0.000000 -0.097656 0.000000 0.000000 0.000000 -0.019531 0.000000 0.009766 0.019531 -0.009766 0.166016 0.009766 0.000000 
0.000000 23.151886 0.000000 0.000000 0.000000 0.000000 6.315374 -0.631841 10.384385 7.591231 -1.520810 13.386940 0.000000 0.000000 -13.549593 -20.016085 -6.534277 -17.257788 -10.000000 -0.096800 -0.039100 -77.055901 4.434520 1.465570 -2.367900 0.000000 6.137710 -6.302800 0.000000 0.000000 22.495365 3.436218 -2.173352 52.473045 25.709772 -10.915413 37.277603 1.209050 -19.842014 0.000000 0.000000 5.544062 0.000000 0.000000 0.000000 0.009766 0.000000 0.000000 -0.097656 0.000000 0.000000 0.000000 -0.019531 0.000000 0.009766 0.019531 -0.009766 0.166016 0.009766 0.000000 
0.000000 23.151886 0.000000 0.000000 0.000000 0.000000 6.271833 -0.647881 10.373443 7.159716 -1.536803 13.390546 0.000000 0.000000 -13.545959 -20.303762 -6.413980 -17.392824 -10.000000 -0.096800 -0.039100 -77.055901 4.434520 1.465570 -2.367900 0.000000 6.137710 -6.302800 0.000000 0.000000 22.614212 3.277426 -2.431496 52.980129 25.514746 -10.736405 36.727600 1.034835 -19.881512 0.000000 0.000000 5.382292 0.000000 0.000000 0.000000 0.009766 0.000000 0.000000 -0.097656 0.000000 0.000000 0.000000 -0.019531 0.000000 0.009766 0.019531 -0.009766 0.166016 0.009766 0.000000 
